<svg xmlns="http://www.w3.org/2000/svg" width="900" height="600" viewBox="0 0 900 600"><title>Схема центра Красноярска</title><rect width="900" height="600" fill="#e3ead9"/><path d="M-106 476 L106 403 L265 331 L381 304 L476 279 L556 248 L662 166 L768 62 L874 -41 L1006 -103 L900 0 L0 0 Z" fill="#eef0ea"/><path d="M-106 476 L106 403 L265 331 L381 304 L476 279 L556 248 L662 166 L768 62 L874 -41 L1006 -103 L1006 103 L874 166 L768 248 L662 321 L556 383 L450 455 L328 466 L159 517 L-106 579 Z" fill="#7fb2cf"/><path d="M566 253 L667 174 L773 91 L879 36 L895 67 L799 150 L699 222 L614 274 Z" fill="#cfe0c4" stroke="#8fb08a"/><ellipse cx="374" cy="424" rx="26" ry="9" transform="rotate(-25 374 424)" fill="#cfe0c4" stroke="#8fb08a"/><ellipse cx="315" cy="136" rx="60" ry="30" fill="#c9d6b8"/><line x1="83" y1="450" x2="47" y2="530" stroke="#6b7378" stroke-width="7" stroke-linecap="round"/><line x1="412" y1="298" x2="376" y2="378" stroke="#6b7378" stroke-width="7" stroke-linecap="round"/><line x1="767" y1="49" x2="731" y2="129" stroke="#6b7378" stroke-width="7" stroke-linecap="round"/><text x="679" y="61" font-family="Arial, sans-serif" text-anchor="middle" font-size="12" fill="#3d4a50" stroke="#e3ead9" stroke-width="3" paint-order="stroke">Октябрьский мост</text><text x="212" y="533" font-family="Arial, sans-serif" text-anchor="middle" font-size="18" font-style="italic" fill="#ffffff">р. Енисей</text><text x="170" y="40" font-family="Arial, sans-serif" text-anchor="middle" font-size="14" fill="#4b5f69">Левый берег · исторический центр</text><text x="720" y="480" font-family="Arial, sans-serif" text-anchor="middle" font-size="14" fill="#4b5f69">Правый берег</text><g><circle cx="315" cy="130" r="12" fill="#a8471f" stroke="#fff" stroke-width="2.5"/><text x="315" y="135" font-family="Arial, sans-serif" text-anchor="middle" font-size="13" font-weight="bold" fill="#fff">1</text></g><g><circle cx="361" cy="283" r="12" fill="#a8471f" stroke="#fff" stroke-width="2.5"/><text x="361" y="288" font-family="Arial, sans-serif" text-anchor="middle" font-size="13" font-weight="bold" fill="#fff">2</text></g><g><circle cx="384" cy="298" r="12" fill="#a8471f" stroke="#fff" stroke-width="2.5"/><text x="384" y="302" font-family="Arial, sans-serif" text-anchor="middle" font-size="13" font-weight="bold" fill="#fff">3</text></g><g><circle cx="439" cy="284" r="12" fill="#a8471f" stroke="#fff" stroke-width="2.5"/><text x="439" y="289" font-family="Arial, sans-serif" text-anchor="middle" font-size="13" font-weight="bold" fill="#fff">4</text></g><g><circle cx="498" cy="259" r="12" fill="#a8471f" stroke="#fff" stroke-width="2.5"/><text x="498" y="263" font-family="Arial, sans-serif" text-anchor="middle" font-size="13" font-weight="bold" fill="#fff">5</text></g><g><circle cx="394" cy="338" r="12" fill="#a8471f" stroke="#fff" stroke-width="2.5"/><text x="394" y="343" font-family="Arial, sans-serif" text-anchor="middle" font-size="13" font-weight="bold" fill="#fff">6</text></g><g><circle cx="65" cy="490" r="12" fill="#a8471f" stroke="#fff" stroke-width="2.5"/><text x="65" y="495" font-family="Arial, sans-serif" text-anchor="middle" font-size="13" font-weight="bold" fill="#fff">7</text></g><g><circle cx="741" cy="140" r="12" fill="#a8471f" stroke="#fff" stroke-width="2.5"/><text x="741" y="144" font-family="Arial, sans-serif" text-anchor="middle" font-size="13" font-weight="bold" fill="#fff">8</text></g><g><circle cx="681" cy="405" r="12" fill="#a8471f" stroke="#fff" stroke-width="2.5"/><text x="681" y="410" font-family="Arial, sans-serif" text-anchor="middle" font-size="13" font-weight="bold" fill="#fff">9</text></g><g><circle cx="30" cy="576" r="12" fill="#a8471f" stroke="#fff" stroke-width="2.5"/><text x="30" y="580.5" font-family="Arial, sans-serif" text-anchor="middle" font-size="13" font-weight="bold" fill="#fff">10</text></g><g><circle cx="62" cy="576" r="12" fill="#a8471f" stroke="#fff" stroke-width="2.5"/><text x="62" y="580.5" font-family="Arial, sans-serif" text-anchor="middle" font-size="13" font-weight="bold" fill="#fff">11</text></g><text x="84" y="581" font-family="Arial, sans-serif" font-size="12" fill="#14232b" stroke="#e3ead9" stroke-width="3" paint-order="stroke">← к Столбам и «Бобровому логу»</text><g transform="translate(868 560)"><path d="M0 -26 L8 0 L0 -6 L-8 0 Z" fill="#0f3a52"/><text y="18" font-family="Arial, sans-serif" text-anchor="middle" font-size="14" fill="#0f3a52">С</text></g><text x="860" y="592" text-anchor="end" font-family="Arial, sans-serif" font-size="10.5" fill="#4b5f69">Точки — по координатам объектов; берега упрощены, масштаб условный</text></svg>